<svg width="98" height="53" viewBox="0 0 98 53" fill="none" xmlns="http://www.w3.org/2000/svg">
<path d="M21.4615 46.5872C20.8325 46.5872 20.3223 46.0447 20.3223 45.3758C20.3223 44.707 20.8325 44.1644 21.4615 44.1644V46.5872ZM34.3667 46.5872H21.4615V44.1644H34.3667L35.5058 45.3758L34.3667 46.5872ZM34.3667 44.1644C34.9957 44.1644 35.5058 44.707 35.5058 45.3758C35.5058 46.0447 34.9957 46.5872 34.3667 46.5872V44.1644ZM35.5058 19.3288V45.3758H33.2275V19.3288L35.1723 18.4721L35.5058 19.3288ZM33.2275 19.3288C33.2275 18.6599 33.7377 18.1174 34.3667 18.1174C34.9957 18.1174 35.5058 18.6599 35.5058 19.3288H33.2275ZM18.6275 0.878049L35.1723 18.4721L33.5611 20.1855L17.0163 2.59142V0.878049H18.6275ZM17.0163 2.59142C16.5716 2.11861 16.5716 1.35086 17.0163 0.878049C17.4609 0.405234 18.1828 0.405234 18.6275 0.878049L17.0163 2.59142ZM0.333547 18.6184L17.0163 0.878049L18.6275 2.59142L1.94476 20.3318L0 19.4751L0.333547 18.6184ZM1.94476 20.3318C1.50014 20.8046 0.778165 20.8046 0.333547 20.3318C-0.111071 19.859 -0.111071 19.0912 0.333547 18.6184L1.94476 20.3318ZM0 45.6619V19.4751H2.27831V45.6619L1.13916 46.8732L0 45.6619ZM2.27831 45.6619C2.27831 46.3307 1.76815 46.8732 1.13916 46.8732C0.510174 46.8732 0 46.3307 0 45.6619H2.27831ZM8.66279 46.8732H1.13916V44.4505H8.66279V46.8732ZM8.66279 44.4505C9.29178 44.4505 9.80194 44.993 9.80194 45.6619C9.80194 46.3307 9.29178 46.8732 8.66279 46.8732V44.4505Z" fill="#7065F0"/>
<path d="M22.3174 25.3066C22.3174 32.3559 22.3174 38.8734 22.3174 45.6569C21.8528 45.6569 20.8153 45.947 20.3239 45.366C20.3239 42.1391 20.3555 39.8846 20.3555 36.6576L9.71502 36.6882L9.80188 45.6874C9.53743 46.2554 8.2136 45.6569 7.74896 45.6569C7.74896 38.8734 7.74896 32.0902 7.74896 25.3066C7.74896 23.8868 9.69371 23.8823 9.71502 25.3372C9.71502 28.4577 9.71502 31.5779 9.71502 34.6984L20.3555 34.6678C20.3555 31.5473 20.3555 28.4271 20.3555 25.3066C20.3894 23.8769 22.3174 23.8999 22.3174 25.3066Z" fill="#7065F0"/>
<path fill-rule="evenodd" clip-rule="evenodd" d="M7.74896 45.6569C7.74896 38.8734 7.74896 32.0902 7.74896 25.3066C7.74896 23.8868 9.69371 23.8823 9.71502 25.3372C9.71502 28.4577 9.71502 31.5779 9.71502 34.6984L20.3555 34.6678C20.3555 31.5473 20.3555 28.4271 20.3555 25.3066C20.3894 23.8769 22.3174 23.8999 22.3174 25.3066C22.3174 32.3559 22.3174 38.8734 22.3174 45.6569C21.8528 45.6569 20.8153 45.947 20.3239 45.366C20.3239 42.1391 20.3555 39.8846 20.3555 36.6576L9.71502 36.6882L9.80188 45.6874C9.53743 46.2554 8.2136 45.6569 7.74896 45.6569Z" fill="#7065F0"/>
<path d="M44.7766 46.0442C43.6285 46.0442 42.5348 45.8598 41.4961 45.4917C40.457 45.1236 39.6463 44.6584 39.0628 44.0963L39.6918 42.9333C40.2749 43.4566 41.0266 43.8927 41.9472 44.2415C42.8674 44.5904 43.829 44.7648 44.8312 44.7648C46.271 44.7648 47.3326 44.5131 48.0162 44.0091C48.6994 43.505 49.0414 42.8073 49.0414 41.9159C49.0414 41.2762 48.8544 40.7725 48.4808 40.404C48.1073 40.036 47.6471 39.7647 47.1002 39.5903C46.5535 39.4159 45.7973 39.2315 44.8312 39.0378C43.7014 38.8246 42.7899 38.5921 42.0973 38.3401C41.4047 38.0881 40.8125 37.6812 40.3205 37.1191C39.8284 36.557 39.5823 35.7817 39.5823 34.7935C39.5823 33.5917 40.0515 32.5983 40.9901 31.8134C41.9288 31.0285 43.2639 30.636 44.9952 30.636C45.9064 30.636 46.8086 30.7716 47.7017 31.0429C48.5948 31.3145 49.3239 31.6729 49.8886 32.1186L49.26 33.2816C48.6768 32.8359 48.0117 32.4967 47.2642 32.2642C46.517 32.0314 45.7518 31.9154 44.9678 31.9154C43.6375 31.9154 42.6349 32.177 41.9607 32.7003C41.2865 33.2236 40.9491 33.9113 40.9491 34.7643C40.9491 35.4424 41.1406 35.9709 41.5232 36.3486C41.9062 36.7266 42.3753 37.0075 42.9313 37.1919C43.487 37.3759 44.2662 37.5744 45.2687 37.7876C46.3804 38.0009 47.2781 38.2285 47.9613 38.4709C48.6449 38.713 49.2235 39.1054 49.6975 39.6483C50.1712 40.1908 50.4082 40.937 50.4082 41.8867C50.4082 43.1465 49.9161 44.1543 48.9319 44.9104C47.9477 45.6661 46.5625 46.0442 44.7766 46.0442ZM61.398 30.636C62.7286 30.636 63.9314 30.9656 65.0069 31.6245C66.0822 32.2835 66.9249 33.1944 67.5355 34.3574C68.1461 35.52 68.4515 36.8478 68.4515 38.3401C68.4515 39.8324 68.1461 41.165 67.5355 42.3376C66.9249 43.5102 66.0822 44.4208 65.0069 45.0701C63.9314 45.7194 62.7286 46.0442 61.398 46.0442C60.1407 46.0442 59.0015 45.729 57.9809 45.0992C56.9602 44.4695 56.1675 43.5922 55.6025 42.4684V51.5676H54.2357V30.7524H55.5479V34.3282C56.113 33.1652 56.9102 32.2591 57.9399 31.6101C58.9696 30.9608 60.1223 30.636 61.398 30.636ZM61.316 44.736C62.4096 44.736 63.3938 44.4644 64.2685 43.9218C65.1435 43.3793 65.8316 42.6232 66.3327 41.6542C66.8338 40.6853 67.0844 39.5803 67.0844 38.3401C67.0844 37.0995 66.8338 35.9949 66.3327 35.0259C65.8316 34.0569 65.1435 33.3008 64.2685 32.7583C63.3938 32.2155 62.4096 31.9442 61.316 31.9442C60.2227 31.9442 59.2431 32.2155 58.3774 32.7583C57.5117 33.3008 56.8282 34.0569 56.327 35.0259C55.8256 35.9949 55.575 37.0995 55.575 38.3401C55.575 39.5803 55.8256 40.6853 56.327 41.6542C56.8282 42.6232 57.5117 43.3793 58.3774 43.9218C59.2431 44.4644 60.2227 44.736 61.316 44.736ZM78.2657 46.0442C76.917 46.0442 75.7004 45.7146 74.6161 45.0556C73.5315 44.3967 72.6794 43.4809 72.0598 42.3084C71.4402 41.1358 71.1305 39.8131 71.1305 38.3401C71.1305 36.8671 71.4402 35.5444 72.0598 34.3718C72.6794 33.1992 73.5315 32.2835 74.6161 31.6245C75.7004 30.9656 76.917 30.636 78.2657 30.636C79.6144 30.636 80.8308 30.9656 81.9154 31.6245C82.9996 32.2835 83.8517 33.1992 84.4713 34.3718C85.091 35.5444 85.4009 36.8671 85.4009 38.3401C85.4009 39.8131 85.091 41.1358 84.4713 42.3084C83.8517 43.4809 82.9996 44.3967 81.9154 45.0556C80.8308 45.7146 79.6144 46.0442 78.2657 46.0442ZM78.2657 44.736C79.359 44.736 80.3387 44.4644 81.2043 43.9218C82.0703 43.3793 82.7536 42.6232 83.2547 41.6542C83.7561 40.6853 84.0067 39.5803 84.0067 38.3401C84.0067 37.0995 83.7561 35.9949 83.2547 35.0259C82.7536 34.0569 82.0703 33.3008 81.2043 32.7583C80.3387 32.2155 79.359 31.9442 78.2657 31.9442C77.1721 31.9442 76.1925 32.2155 75.3268 32.7583C74.4611 33.3008 73.7776 34.0569 73.2765 35.0259C72.7753 35.9949 72.5248 37.0995 72.5248 38.3401C72.5248 39.5803 72.7753 40.6853 73.2765 41.6542C73.7776 42.6232 74.4611 43.3793 75.3268 43.9218C76.1925 44.4644 77.1721 44.736 78.2657 44.736ZM96.7188 44.9684C96.3727 45.3173 95.9397 45.5837 95.4205 45.7678C94.901 45.9522 94.3588 46.0442 93.7938 46.0442C92.5545 46.0442 91.5978 45.6806 90.9233 44.954C90.2491 44.2271 89.9117 43.2145 89.9117 41.9159V32.0026H87.2873V30.7524H89.9117V27.4382H91.2788V30.7524H95.8167V32.0026H91.2788V41.7707C91.2788 42.7589 91.5019 43.5101 91.9485 44.0235C92.395 44.5371 93.0557 44.794 93.9304 44.794C94.8235 44.794 95.5616 44.5131 96.1447 43.951L96.7188 44.9684Z" fill="#7065F0" stroke="#7065F0" stroke-width="1.00006" stroke-miterlimit="22.9256"/>
</svg>
