<svg xmlns="http://www.w3.org/2000/svg" xmlns:xlink="http://www.w3.org/1999/xlink">
    <symbol viewBox="0 0 30 30" id="instagram">
           <path d="M 9.9980469 3 C 6.1390469 3 3 6.1419531 3 10.001953 L 3 20.001953 C 3 23.860953 6.1419531 27 10.001953 27 L 20.001953 27 C 23.860953 27 27 23.858047 27 19.998047 L 27 9.9980469 C 27 6.1390469 23.858047 3 19.998047 3 L 9.9980469 3 z M 22 7 C 22.552 7 23 7.448 23 8 C 23 8.552 22.552 9 22 9 C 21.448 9 21 8.552 21 8 C 21 7.448 21.448 7 22 7 z M 15 9 C 18.309 9 21 11.691 21 15 C 21 18.309 18.309 21 15 21 C 11.691 21 9 18.309 9 15 C 9 11.691 11.691 9 15 9 z M 15 11 A 4 4 0 0 0 11 15 A 4 4 0 0 0 15 19 A 4 4 0 0 0 19 15 A 4 4 0 0 0 15 11 z"/>
    </symbol>
    <symbol viewBox="0 0 136 24" id="logo">
        <path fill="#11111" d="M109.22574307649376,15.767025946424962 h-0.10204674128905859 l-4.339327026374185,-15.094491833059545 h-7.000031968975144 v19.029376728820218 h4.6370413725202475 l-0.2612022093545637,-15.615960043132992 h0.10204674128905859 l4.659510379776554,15.615960043132992 h6.716360752364275 V0.6715979047297337 h-4.6679362574976695 L109.22574307649376,15.767025946424962 zM20.168896607487397,0.6715979047297337 l-3.4920582110842964,19.230661585491298 h5.09578360400317 L24.354685417610156,2.4466494779779446 h0.10766399310313532 l2.5137201867992855,17.456546220878764 h5.065824927661427 L28.565751860896263,0.6715979047297337 H20.168896607487397 zM48.67270472938352,0.6734703220010925 L46.34341764381307,15.376626945346635 h-0.10579157583177656 L43.91957348603901,0.6734703220010925 h-7.6928263593779285 l-0.4175490515130303,19.22878916821994 h4.716619106553 l0.11796228809560914,-17.292709709634863 h0.10672778446745618 l3.1503420590613023,17.292709709634863 h4.784026128321919 l3.151278267696982,-17.287092457820783 l0.10485536719609723,-0.005617251814076635 l0.12264333127400628,17.292709709634863 h4.718491523824358 L56.36553108876143,0.6734703220010925 H48.67270472938352 zM4.991082205852382,5.61852433565987 c-0.08893982038954686,-0.393207626985364 -0.06740702176891958,-0.7864152539707264 -0.01966038134926822,-1.0036156574483548 c0.13575025217351874,-0.6178976995484298 0.5439372173297531,-1.2947765431446603 1.7244963069215238,-1.2947765431446603 c1.1065986073730936,0 1.7507101487205456,0.6984116422168626 1.7507101487205456,1.7413480623637512 v1.1880487586772044 h4.710065646103242 V4.907005772543501 c0,-4.195150896479553 -3.690534441848337,-4.849560732819479 -6.3624738880774485,-4.849560732819479 c-3.3525631243680603,0 -6.090037175094732,1.135621075079156 -6.594653629725946,4.272856213240947 c-0.13762266944487758,0.8425877721114933 -0.1544744248871073,1.6149598965470273 0.04587422314829263,2.5886168776536405 c0.8191825562195081,3.930203852582274 7.51962776177723,5.068633553568467 8.492348534248162,7.55426748129737 c0.18256068395749064,0.4634232746613218 0.12357953990968573,1.0644692187675187 0.03370351088445991,1.4277181694111398 c-0.15260200761574857,0.6291322031765838 -0.5767045195785329,1.2835420395165067 -1.835905134567375,1.2835420395165067 c-1.1777504636847307,0 -1.8967586958865381,-0.6881133472243876 -1.8967586958865381,-1.7376032278210338 l-0.0028086259070383237,-1.865863810909118 H-0.02137882957531958 l-0.0028086259070383237,1.4866993134589443 c0,4.2897079686831745 3.310433735762486,5.578867260013759 6.855855839080511,5.578867260013759 c3.417161520229942,0 6.218297758182813,-1.1777504636847307 6.671422737851661,-4.388009875429517 c0.23030732437714158,-1.6645789542380374 0.06085356131916363,-2.75619822344026 -0.020596589984947702,-3.163448979960814 C12.683908565230308,9.066580740867234 5.529402171368054,7.875723356282994 4.991082205852382,5.61852433565987 zM66.35955827463943,5.663462350172489 c-0.09268465493226458,-0.38384554062857074 -0.06647081313324008,-0.7733083330712143 -0.02246900725630657,-0.985827693370445 c0.13200541763080076,-0.6141528650057112 0.5364475482443176,-1.2835420395165067 1.7067083428436125,-1.2835420395165067 c1.093491686473581,0 1.7357308105496747,0.6881133472243876 1.7357308105496747,1.7170066378360853 v1.1796228809560894 h4.659510379776554 V4.960369664777225 c0,-4.143659421517184 -3.6568309309638773,-4.796196840585751 -6.294130657672849,-4.796196840585751 c-3.323540656661997,0 -6.037609491496685,1.110343441915811 -6.5309914424997455,4.227918198728333 c-0.13762266944487758,0.8388429375687763 -0.15915546806550462,1.6055978101902342 0.043065597241254375,2.565211661761655 c0.8116928871340725,3.8890106726123794 7.445667279558556,5.019014495877456 8.410898382944053,7.477498373171655 c0.17600722350773476,0.4634232746613218 0.12264333127400628,1.0541709237750447 0.03651213679149809,1.4146112485116287 c-0.15353821625142808,0.6338132463549802 -0.5776407282142131,1.268562701345636 -1.8190533791251458,1.268562701345636 c-1.1721332118706538,0 -1.8780345231729496,-0.6778150522319144 -1.8780345231729496,-1.7160704292004096 l-0.003744834542717764,-1.8518206813739262 h-5.012461035427701 v1.4735923925594332 c0,4.2457061628062425 3.2814112680564236,5.519886115965955 6.792193651854308,5.519886115965955 c3.375032131624367,0 6.152763153685254,-1.1674521686922572 6.597462255632985,-4.3440080695525864 c0.22843490710578326,-1.643046155617411 0.05991735268348411,-2.725303338462839 -0.01966038134926822,-3.1306816777120345 C73.96999827407754,9.083432496309465 66.8838351106199,7.899128572174978 66.35955827463943,5.663462350172489 zM87.75098939127885,14.893543289336048 c0.003744834542717764,0.24435045391233337 -0.003744834542717764,0.5270854618875238 -0.044001805876933635,0.7330513617369991 c-0.09362086356794393,0.4784026128321927 -0.4971267855457818,1.3837163635342076 -1.8087550841326705,1.3837163635342076 c-1.3069472554084929,0 -1.715134220564727,-0.9053137507020158 -1.8087550841326705,-1.3837163635342076 c-0.04025697133421589,-0.20596589984947639 -0.04961905769101042,-0.4887009078246667 -0.04774664041965139,-0.7330513617369991 V0.6697254874583772 h-4.767174372879687 v13.782863534472657 c-0.007489669085435525,0.35669549019386626 0.027150050434703737,1.0785123483027104 0.044001805876933635,1.2704351186169949 c0.3239281879450861,3.584742866016561 3.1100850877270867,4.742832948352023 6.578738082919396,4.742832948352023 c3.4649081606495926,0 6.250128851795915,-1.1580900823354623 6.584355334733474,-4.742832948352023 c0.016851755442229867,-0.19192277031428503 0.05336389223372809,-0.9146758370588092 0.04774664041965139,-1.2704351186169949 V0.6697254874583772 h-4.779345085143521 V14.893543289336048 zM125.28359359566744,9.090922165394904 v2.8161155761237437 h1.9313984154066768 v2.7889655256890404 c0.005617251814076635,0.24247803664097453 -0.003744834542717764,0.5102337064452928 -0.044001805876933635,0.7302427358299616 c-0.08425877721114956,0.5177233755307277 -0.5654700159503809,1.391206032619642 -1.9257811635925999,1.391206032619642 c-1.364055982184939,0 -1.8433948036528092,-0.8744188657245942 -1.9313984154066768,-1.391206032619642 c-0.03651213679149809,-0.22000902938466785 -0.04774664041965139,-0.48776469918898696 -0.04212938860557486,-0.7302427358299616 V5.897514509092347 c0,-0.3126936843169337 0.01966038134926822,-0.6544098363399284 0.07676910812571414,-0.9025051247949775 c0.1001743240176998,-0.4737215696537955 0.506488871902575,-1.3958870757980395 1.8780345231729496,-1.3958870757980395 c1.4426975075820112,0 1.799392997775876,0.9736569811066126 1.8855241922583854,1.3958870757980395 c0.055236309505086956,0.2668194611686399 0.0589811440478047,0.7264979012872435 0.0589811440478047,0.7246254840158847 v1.0831933914811076 h4.754067451980178 V6.160589135718267 c-0.0018724172713588793,0 0.016851755442229867,-0.6572184622469663 -0.03838455406285709,-1.2573281977174824 c-0.3492058211084312,-3.616573959629662 -3.280475059420744,-4.755003660615855 -6.620867471524972,-4.755003660615855 c-3.342264829375587,0 -6.204254628647622,1.1477917873429888 -6.618995054253614,4.755003660615855 c-0.04025697133421589,0.3108212670455741 -0.08238635993979058,0.9156120456944892 -0.08238635993979058,1.2573281977174824 l-0.0018724172713588793,8.090715029541684 c0.0018724172713588793,0.36231274200794295 0.013106920899512153,0.630068411812262 0.06553460449756064,1.2704351186169949 c0.3108212670455741,3.501420297441091 3.2954543975916146,4.755939869251536 6.633974392424483,4.755939869251536 c3.340392412104228,0 6.32502554265027,-1.254519571810444 6.637719226967202,-4.755939869251536 c0.05149147496236917,-0.6413029154404155 0.0589811440478047,-0.9090585852447315 0.05991735268348411,-1.2704351186169949 V9.090922165394904 H125.28359359566744 z"/>
    </symbol>
    <symbol viewBox="0 0 24 24" id="youtube">
        <path d="M21.582,6.186c-0.23-0.86-0.908-1.538-1.768-1.768C18.254,4,12,4,12,4S5.746,4,4.186,4.418 c-0.86,0.23-1.538,0.908-1.768,1.768C2,7.746,2,12,2,12s0,4.254,0.418,5.814c0.23,0.86,0.908,1.538,1.768,1.768 C5.746,20,12,20,12,20s6.254,0,7.814-0.418c0.861-0.23,1.538-0.908,1.768-1.768C22,16.254,22,12,22,12S22,7.746,21.582,6.186z M10,14.598V9.402c0-0.385,0.417-0.625,0.75-0.433l4.5,2.598c0.333,0.192,0.333,0.674,0,0.866l-4.5,2.598 C10.417,15.224,10,14.983,10,14.598z"/>
    </symbol>
    <symbol viewBox="0 0 512 512" id="backet">
        <g><path d="M397.78,316H192.65A15,15,0,0,1,178,304.33L143.46,153.85a15,15,0,0,1,14.62-18.36H432.35A15,15,0,0,1,447,153.85L412.4,304.33A15,15,0,0,1,397.78,316ZM204.59,286H385.84l27.67-120.48H176.91Z"/><path d="M222,450a57.48,57.48,0,1,1,57.48-57.48A57.54,57.54,0,0,1,222,450Zm0-84.95a27.48,27.48,0,1,0,27.48,27.47A27.5,27.5,0,0,0,222,365.05Z"/><path d="M368.42,450a57.48,57.48,0,1,1,57.48-57.48A57.54,57.54,0,0,1,368.42,450Zm0-84.95a27.48,27.48,0,1,0,27.48,27.47A27.5,27.5,0,0,0,368.42,365.05Z"/><path d="M158.08,165.49a15,15,0,0,1-14.23-10.26L118.14,78H70.7a15,15,0,1,1,0-30H129a15,15,0,0,1,14.23,10.26l29.13,87.49a15,15,0,0,1-14.23,19.74Z"/></g>
    </symbol>
    <symbol viewBox="0 0 30 30" id="facebook">
        <path d="M24,4H6C4.895,4,4,4.895,4,6v18c0,1.105,0.895,2,2,2h10v-9h-3v-3h3v-1.611C16,9.339,17.486,8,20.021,8 c1.214,0,1.856,0.09,2.16,0.131V11h-1.729C19.376,11,19,11.568,19,12.718V14h3.154l-0.428,3H19v9h5c1.105,0,2-0.895,2-2V6 C26,4.895,25.104,4,24,4z"/>   
    </symbol> 
    <symbol viewBox="0 0 64 64" id="search">
        <path d="M39.94,44.142c-3.387,2.507 7.145,-8.263 4.148,-4.169c0.075,-0.006 -0.064,0.221 -0.53,0.79c0,0 8.004,7.95 11.933,11.996c1.364,1.475 -1.097,4.419 -2.769,2.882c-3.558,-3.452 -11.977,-12.031 -11.99,-12.045l-0.792,0.546Z"/><path d="M28.179,48.162c5.15,-0.05 10.248,-2.183 13.914,-5.806c4.354,-4.303 6.596,-10.669 5.814,-16.747c-1.34,-10.415 -9.902,-17.483 -19.856,-17.483c-7.563,0 -14.913,4.731 -18.137,11.591c-2.468,5.252 -2.473,11.593 0,16.854c3.201,6.812 10.431,11.518 18.008,11.591c0.086,0 0.172,0 0.257,0Zm-0.236,-3.337c-7.691,-0.074 -14.867,-6.022 -16.294,-13.648c-1.006,-5.376 0.893,-11.194 4.849,-15.012c4.618,-4.459 11.877,-5.952 17.913,-3.425c5.4,2.261 9.442,7.511 10.187,13.295c0.638,4.958 -1.141,10.154 -4.637,13.733c-3.067,3.14 -7.368,5.014 -11.803,5.057c-0.072,0 -0.143,0 -0.215,0Z"/>
    </symbol>
    <symbol viewBox="0 0 24 24" id="burger">
        <g id="Icon"><path d="M4,6.75l16,0c0.414,0 0.75,-0.336 0.75,-0.75c0,-0.414 -0.336,-0.75 -0.75,-0.75l-16,0c-0.414,0 -0.75,0.336 -0.75,0.75c0,0.414 0.336,0.75 0.75,0.75Z"/><path d="M4,12.75l16,0c0.414,0 0.75,-0.336 0.75,-0.75c0,-0.414 -0.336,-0.75 -0.75,-0.75l-16,0c-0.414,0 -0.75,0.336 -0.75,0.75c0,0.414 0.336,0.75 0.75,0.75Z"/><path d="M4,18.75l16,0c0.414,0 0.75,-0.336 0.75,-0.75c0,-0.414 -0.336,-0.75 -0.75,-0.75l-16,0c-0.414,0 -0.75,0.336 -0.75,0.75c0,0.414 0.336,0.75 0.75,0.75Z"/></g>
    </symbol>
    <symbol viewBox="0 0 512 512" id="cross">
        <path d="M268.064,256.75l138.593-138.593c3.124-3.124,3.124-8.189,0-11.313c-3.125-3.124-8.189-3.124-11.314,0L256.75,245.436   L118.157,106.843c-3.124-3.124-8.189-3.124-11.313,0c-3.125,3.124-3.125,8.189,0,11.313L245.436,256.75L106.843,395.343   c-3.125,3.125-3.125,8.189,0,11.314c1.562,1.562,3.609,2.343,5.657,2.343s4.095-0.781,5.657-2.343L256.75,268.064l138.593,138.593   c1.563,1.562,3.609,2.343,5.657,2.343s4.095-0.781,5.657-2.343c3.124-3.125,3.124-8.189,0-11.314L268.064,256.75z"/>
    </symbol>
</svg>




























</svg>

